<svg xmlns="http://www.w3.org/2000/svg" viewBox="0 0 64 64"><g id="SUV"><circle cx="51" cy="45" r="1"/><rect x="20" y="18" width="11" height="8"/><path d="M54,33a3.009,3.009,0,0,1,3-3h2.71a.959.959,0,0,0-.54-.29L50,28.18a3.018,3.018,0,0,1-2.34-1.95L43.53,14.66a1.006,1.006,0,0,0-.94-.66H9.41a1.006,1.006,0,0,0-.94.66L4.17,26.68A3.2,3.2,0,0,0,4,27.69V31H7v2H4v2H7v2H4v6a1,1,0,0,0,1,1H6.08a6.991,6.991,0,0,1,13.84,0H31V28H9a1,1,0,0,1-.8-.4,1.017,1.017,0,0,1-.16-.89l3.02-10a1.008,1.008,0,0,1,.96-.71H41a1,1,0,0,1,.93.63l4,10a1.021,1.021,0,0,1-.1.93A1,1,0,0,1,45,28H33V44H44.08a6.991,6.991,0,0,1,13.84,0H59a1,1,0,0,0,1-1V40H58V38h2V36H57A3.009,3.009,0,0,1,54,33ZM14,30h4v2H14Zm25,2H35V30h4Z"/><circle cx="13" cy="45" r="1"/><polygon points="18 26 18 18 12.76 18 10.35 26 18 26"/><path d="M57,32a1,1,0,0,0,0,2h3V32Z"/><polygon points="33 18 33 26 43.52 26 40.32 18 33 18"/><path d="M13,40a5,5,0,1,0,5,5A5.006,5.006,0,0,0,13,40Zm2.816,6A3,3,0,0,1,14,47.816V47H12v.816A3,3,0,0,1,10.184,46H11V44h-.816A3,3,0,0,1,12,42.184V43h2v-.816A3,3,0,0,1,15.816,44H15v2Z"/><path d="M51,40a5,5,0,1,0,5,5A5.006,5.006,0,0,0,51,40Zm2.816,6A3,3,0,0,1,52,47.816V47H50v.816A3,3,0,0,1,48.184,46H49V44h-.816A3,3,0,0,1,50,42.184V43h2v-.816A3,3,0,0,1,53.816,44H53v2Z"/></g></svg>