<?xml version="1.0" encoding="iso-8859-1"?>
<!-- Generator: Adobe Illustrator 19.0.0, SVG Export Plug-In . SVG Version: 6.00 Build 0)  -->
<svg version="1.1" id="Capa_1" xmlns="http://www.w3.org/2000/svg" xmlns:xlink="http://www.w3.org/1999/xlink" x="0px" y="0px"
	 viewBox="0 0 512 512" style="enable-background:new 0 0 512 512;" xml:space="preserve">
<g>
	<g>
		<polygon points="78.933,0 78.933,48.675 433.067,48.958 433.067,0 		"/>
	</g>
</g>
<g>
	<g>
		<path d="M512,352.583v-75.357h-30v45.357h-16.933V196.291L46.933,196.01v126.573H30v-45.357H0v75.357h46.933V482H0v30h512v-30
			h-46.933V352.583H512z M192.045,482h-30v-51.582h-23.064V482h-30v-81.582h83.064V482z M192.046,322.583h-30V271h-23.064v51.583
			h-30V241h83.064V322.583z M297.532,482h-30v-51.582h-23.064V482h-30v-81.582h83.064V482z M297.532,322.583h-30V271h-23.064v51.583
			h-30V241h83.064V322.583z M403.019,482h-30v-51.582h-23.064V482h-30v-81.582h83.064V482z M403.019,322.583h-30V271h-23.064v51.583
			h-30V241h83.064V322.583z"/>
	</g>
</g>
<g>
	<g>
		<polygon points="461.385,78.981 50.924,78.653 0,132.715 0,165.978 512,166.323 512,132.715 		"/>
	</g>
</g>
<g>
</g>
<g>
</g>
<g>
</g>
<g>
</g>
<g>
</g>
<g>
</g>
<g>
</g>
<g>
</g>
<g>
</g>
<g>
</g>
<g>
</g>
<g>
</g>
<g>
</g>
<g>
</g>
<g>
</g>
</svg>
