<svg height="512pt" viewBox="0 0 512 512" width="512pt" xmlns="http://www.w3.org/2000/svg"><path d="m479.660156 303.824219-27.953125-139.765625c-1.398437-7.011719-7.558593-12.058594-14.707031-12.058594h-15v-72.511719l28.460938-57.871093c2.285156-4.648438 2.011718-10.148438-.726563-14.546876-2.738281-4.394531-7.554687-7.070312-12.734375-7.070312h-120c-5.179688 0-9.996094 2.675781-12.734375 7.070312-2.738281 4.398438-3.011719 9.898438-.726563 14.546876l28.460938 57.871093v72.511719h-120v-32.578125c17.460938-6.195313 30-22.867187 30-42.421875 0-24.8125-20.1875-45-45-45h-182c-8.285156 0-15 6.714844-15 15v360c0 19.96875 13.078125 36.929688 31.113281 42.796875 6.09375 35.277344 36.894531 62.203125 73.886719 62.203125 36.21875 0 66.523438-25.808594 73.492188-60h33.507812c0 33.085938 26.914062 60 60 60s60-26.914062 60-60h30c0 33.085938 26.914062 60 60 60s60-26.914062 60-60h15c8.285156 0 15-6.714844 15-15v-90c0-20.417969-13.671875-37.691406-32.339844-43.175781zm-66.753906-273.824219-15.246094 31h-41.320312l-15.246094-31zm-50.90625 61h30v61h-30zm62.703125 91 24 120h-236.703125v-120zm-394.703125 120v-180h152v180zm0-240h167c8.269531 0 15 6.730469 15 15s-6.730469 15-15 15h-167zm75 420c-24.8125 0-45-20.1875-45-45s20.1875-45 45-45 45 20.1875 45 45-20.1875 45-45 45zm167 0c-16.542969 0-30-13.457031-30-30s13.457031-30 30-30 30 13.457031 30 30-13.457031 30-30 30zm150 0c-16.542969 0-30-13.457031-30-30s13.457031-30 30-30 30 13.457031 30 30-13.457031 30-30 30zm60-60h-8.070312c-10.394532-17.914062-29.769532-30-51.929688-30s-41.535156 12.085938-51.929688 30h-46.140624c-10.394532-17.914062-29.769532-30-51.929688-30s-41.535156 12.085938-51.929688 30h-41.578124c-6.96875-34.191406-37.273438-60-73.492188-60-34.058594 0-62.871094 22.832031-71.980469 53.984375-1.886719-2.507813-3.019531-5.613281-3.019531-8.984375v-75h436.917969c.019531 0 .042969.003906.066406.003906.011719 0 .023437-.003906.035156-.003906 8.261719.011719 14.980469 6.734375 14.980469 15zm0 0"/><path d="m119.972656 437c0 8.285156-6.71875 15-15 15-8.285156 0-15-6.714844-15-15s6.714844-15 15-15c8.28125 0 15 6.714844 15 15zm0 0"/><path d="m105 152c-24.8125 0-45 20.1875-45 45v60c0 8.285156 6.714844 15 15 15h60c8.285156 0 15-6.714844 15-15v-60c0-24.8125-20.1875-45-45-45zm15 90h-30v-45c0-8.269531 6.730469-15 15-15s15 6.730469 15 15zm0 0"/><path d="m377 272c8.285156 0 15-6.714844 15-15v-30c0-8.285156-6.714844-15-15-15s-15 6.714844-15 15v30c0 8.285156 6.714844 15 15 15zm0 0"/><path d="m317 272c8.285156 0 15-6.714844 15-15v-30c0-8.285156-6.714844-15-15-15s-15 6.714844-15 15v30c0 8.285156 6.714844 15 15 15zm0 0"/><path d="m257 272c8.285156 0 15-6.714844 15-15v-30c0-8.285156-6.714844-15-15-15s-15 6.714844-15 15v30c0 8.285156 6.714844 15 15 15zm0 0"/></svg>